<mxfile host="app.diagrams.net" modified="2024-09-12T14:22:27.407Z" agent="Mozilla/5.0 (Windows NT 10.0; Win64; x64) AppleWebKit/537.36 (KHTML, like Gecko) Chrome/128.0.0.0 Safari/537.36" version="24.1.0" etag="CbESKl0DMcEWltUN4QT6" type="github">
  <diagram name="Trang-1" id="q6JkN1vHlHSfo09PjOiF">
    <mxGraphModel>
      <root>
        <mxCell id="0" />
        <mxCell id="1" parent="0" />
      </root>
    </mxGraphModel>
  </diagram>
</mxfile>
